<mxfile host="app.diagrams.net" modified="2021-08-26T03:59:26.469Z" agent="5.0 (X11; Linux x86_64) AppleWebKit/537.36 (KHTML, like Gecko) Chrome/91.0.4472.114 Safari/537.36" etag="dvUPX8UGgt5GHse9gsA7" version="14.9.7" type="github">
  <diagram id="DsIoxcjMDnB4c7Ul5QZX" name="Page-1">
    <mxGraphModel dx="1550" dy="800" grid="1" gridSize="10" guides="1" tooltips="1" connect="1" arrows="1" fold="1" page="1" pageScale="1" pageWidth="850" pageHeight="1100" math="0" shadow="0">
      <root>
        <mxCell id="0" />
        <mxCell id="1" parent="0" />
        <mxCell id="iNRO9t_DTIy8WSC0vH2l-1" value="May" style="ellipse;whiteSpace=wrap;html=1;aspect=fixed;" vertex="1" parent="1">
          <mxGeometry x="240" y="290" width="80" height="80" as="geometry" />
        </mxCell>
        <mxCell id="iNRO9t_DTIy8WSC0vH2l-2" value="" style="endArrow=classic;html=1;exitX=1;exitY=0.5;exitDx=0;exitDy=0;" edge="1" parent="1" source="iNRO9t_DTIy8WSC0vH2l-1" target="iNRO9t_DTIy8WSC0vH2l-3">
          <mxGeometry width="50" height="50" relative="1" as="geometry">
            <mxPoint x="400" y="430" as="sourcePoint" />
            <mxPoint x="470" y="310" as="targetPoint" />
          </mxGeometry>
        </mxCell>
        <mxCell id="iNRO9t_DTIy8WSC0vH2l-3" value="HK" style="ellipse;whiteSpace=wrap;html=1;aspect=fixed;" vertex="1" parent="1">
          <mxGeometry x="440" y="250" width="80" height="80" as="geometry" />
        </mxCell>
        <mxCell id="iNRO9t_DTIy8WSC0vH2l-4" value="" style="endArrow=classic;html=1;exitX=1;exitY=0.5;exitDx=0;exitDy=0;" edge="1" parent="1" source="iNRO9t_DTIy8WSC0vH2l-1" target="iNRO9t_DTIy8WSC0vH2l-5">
          <mxGeometry width="50" height="50" relative="1" as="geometry">
            <mxPoint x="400" y="430" as="sourcePoint" />
            <mxPoint x="440" y="490" as="targetPoint" />
            <Array as="points">
              <mxPoint x="480" y="480" />
            </Array>
          </mxGeometry>
        </mxCell>
        <mxCell id="iNRO9t_DTIy8WSC0vH2l-5" value="bingo" style="ellipse;whiteSpace=wrap;html=1;aspect=fixed;" vertex="1" parent="1">
          <mxGeometry x="680" y="250" width="100" height="100" as="geometry" />
        </mxCell>
        <mxCell id="iNRO9t_DTIy8WSC0vH2l-6" value="" style="endArrow=classic;html=1;exitX=1;exitY=0.5;exitDx=0;exitDy=0;entryX=0.5;entryY=0;entryDx=0;entryDy=0;" edge="1" parent="1" source="iNRO9t_DTIy8WSC0vH2l-3" target="iNRO9t_DTIy8WSC0vH2l-5">
          <mxGeometry width="50" height="50" relative="1" as="geometry">
            <mxPoint x="400" y="430" as="sourcePoint" />
            <mxPoint x="450" y="380" as="targetPoint" />
          </mxGeometry>
        </mxCell>
        <mxCell id="iNRO9t_DTIy8WSC0vH2l-8" value="向日葵 300k" style="rounded=0;whiteSpace=wrap;html=1;" vertex="1" parent="1">
          <mxGeometry x="410" y="440" width="120" height="60" as="geometry" />
        </mxCell>
        <mxCell id="iNRO9t_DTIy8WSC0vH2l-9" value="100kb" style="rounded=0;whiteSpace=wrap;html=1;" vertex="1" parent="1">
          <mxGeometry x="540" y="240" width="120" height="60" as="geometry" />
        </mxCell>
      </root>
    </mxGraphModel>
  </diagram>
</mxfile>
